<?xml version="1.0" encoding="UTF-8" standalone="no"?>
<svg
   xmlns:dc="http://purl.org/dc/elements/1.1/"
   xmlns:cc="http://creativecommons.org/ns#"
   xmlns:rdf="http://www.w3.org/1999/02/22-rdf-syntax-ns#"
   xmlns:svg="http://www.w3.org/2000/svg"
   xmlns="http://www.w3.org/2000/svg"
   xmlns:sodipodi="http://sodipodi.sourceforge.net/DTD/sodipodi-0.dtd"
   xmlns:inkscape="http://www.inkscape.org/namespaces/inkscape"
   version="1.1"
   id="Steyr_AUG_A1_407mm"
   width="210mm"
   height="297mm"
   viewBox="0 0 793.7008 1122.5196"
   xml:space="preserve"
   sodipodi:docname="aug.svg"
   inkscape:version="0.92.3 (2405546, 2018-03-11)"><metadata
   id="metadata16"><rdf:RDF><cc:Work
       rdf:about=""><dc:format>image/svg+xml</dc:format><dc:type
         rdf:resource="http://purl.org/dc/dcmitype/StillImage" /><dc:title>Steyr AUG A1 407mm</dc:title></cc:Work></rdf:RDF></metadata><defs
   id="defs14" /><sodipodi:namedview
   pagecolor="#ffffff"
   bordercolor="#666666"
   borderopacity="1"
   objecttolerance="10"
   gridtolerance="10"
   guidetolerance="10"
   inkscape:pageopacity="0"
   inkscape:pageshadow="2"
   inkscape:window-width="1920"
   inkscape:window-height="1017"
   id="namedview12"
   showgrid="false"
   units="mm"
   inkscape:document-units="mm"
   inkscape:zoom="0.16078261"
   inkscape:cx="1607.6117"
   inkscape:cy="492.86274"
   inkscape:window-x="-4"
   inkscape:window-y="-4"
   inkscape:window-maximized="1"
   inkscape:current-layer="Steyr_AUG_A1_407mm" />
  <title
   id="title7">Steyr AUG A1 407mm</title>
  <path
   d="m 589.89737,183.17786 c -92.6646,7.23481 -187.9251,-8.75116 -269.05,-2.49299 -77.66819,5.98832 -120.71719,57.5829 -154.46249,107.10855 18.9288,-3.58527 31.5993,18.87732 47.3283,22.43691 52.9438,11.95091 663.90589,-2.42875 881.90102,7.47896 79.0046,3.59813 154.244,-3.44393 226.7077,2.48013 25.4311,2.09463 64.3037,-1.77336 89.6834,2.49299 36.5981,6.15537 91.0583,49.03736 97.1494,77.2184 8.687,40.18341 -17.6823,90.57001 -27.3972,127.05241 -34.0151,127.7978 -58.8164,258.5384 -87.1902,383.6376 -72.1168,-1.2979 -172.1319,4.6518 -234.1868,-14.9323 0.1408,-4.292 -1.9019,-6.3995 -4.986,-7.4789 -7.6588,-31.9206 20.5094,-34.9661 19.9439,-59.7804 -0.668,-27.7955 -47.9064,-52.1086 -72.2453,-69.7651 -32.9999,-23.9018 -61.5279,-45.4521 -84.7101,-59.7932 -5.6028,10.1904 -13.5058,18.0549 -22.42413,24.9171 -30.1986,-17.1425 -55.4368,-39.2453 -84.6973,-57.3002 -11.2057,13.3131 -21.3317,-7.2348 -32.3961,0 -16.4485,105.2709 -37.5361,210.5547 -67.2464,306.432 -6.5151,20.9848 -25.0712,79.99398 -42.355,84.69728 -13.93,3.8038 -43.8844,-9.7535 -59.7933,-14.9451 -58.8551,-19.2371 -119.7147,-36.6623 -164.4087,-62.28608 -3.4953,-20.3937 15.3434,-30.8026 22.4241,-47.3282 18.7102,-43.743 28.1553,-97.5736 39.8621,-149.4766 11.6425,-51.7359 21.8715,-107.4812 24.9042,-164.4344 -18.1192,-9.278 -26.3692,-28.4381 -32.3961,-49.8212 -35.2358,-10.4988 -69.5209,-20.6121 -109.6143,-29.8902 -58.0326,-13.4415 -146.1225,-37.3434 -164.3959,19.9311 -14.4696,45.2464 17.5794,63.5326 34.8633,89.6833 42.8177,64.8434 73.0934,150.6973 59.7803,254.0921 -16.6156,9.5479 -32.6272,3.2512 -49.8212,2.4801 -77.02569,-3.3796 -173.17279,7.4533 -226.70779,-12.4521 -56.799004,-21.1261 -94.874904,-91.0968 -129.545404,-137.0115 -23.5291999,-31.1624 -47.3282,-64.1624 -72.2453,-97.1752 -59.471866,-78.7861 -118.314096,-174.1236 -259.090846,-154.4496 -24.30021,42.7792 -63.71256,-31.7278 -99.65529,0 22.07709,2.8271 45.38781,4.4463 54.82005,19.9311 -48.16351,110.3854 25.85512,230.9355 -2.49299,348.7485 -37.26632,4.5105 -98.01043,16.063 -132.02558,0 12.79905,-33.5783 9.40653,-70.7675 7.47896,-114.5875 -3.76518,-85.6226 13.15886,-178.0945 2.48013,-244.133 4.71613,-8.5712 26.43339,-0.1414 29.90301,-9.9591 -5.8341,-7.903 -11.32124,-36.521 -12.46494,-57.3002 -38.3586,1.4778 -82.79548,-3.0712 -117.0805,2.493 -14.52101,-7.1577 -15.6904,-5.8855 -29.90301,0 -7.87732,-11.514 -11.2056,-27.88549 -27.39717,-34.87612 -22.20559,-9.57359 -99.938,-4.94743 -138.55361,-4.94743 -14.07125,0 -18.14485,12.16937 -23.37498,14.90652 -15.00934,-19.55838 -47.81655,9.98483 -69.75227,-9.95909 -6.7465,1.94041 -13.8528,10.51166 -21.48597,11.24414 -27.58994,2.6472 -60.11443,-8.84111 -89.51627,-11.65536 -9.94626,-0.96383 -19.5456,-1.76052 -28.5023,-2.09463 -8.34,4.94743 -11.5783,14.99649 -27.3972,12.4521 -21.1775,-16.43574 -25.0198,-67.79902 0,-74.73827 9.882,-2.73714 18.0934,6.42523 27.3972,7.49182 36.30252,4.1507 90.41579,-11.60396 122.07931,-9.97195 9.7792,1.01513 10.62733,10.94858 19.9182,12.45209 5.10164,-8.5841 16.4743,-5.01168 24.90419,-4.98597 29.73596,0.0904 27.20442,4.17638 42.34225,-7.47898 9.4708,5.46145 12.4264,12.77336 24.91704,12.4521 41.27566,-1.01513 145.54426,0.62967 185.31643,-1.20794 7.96728,-0.37266 12.05372,-14.40537 13.96844,-13.73715 53.8177,1.5035 102.7137,-1.92756 154.44963,-2.49298 83.21955,-56.01513 -2.73715,-7.45327 2.49299,-29.89016 16.56424,-11.16705 32.08759,-15.17639 49.5899,-27.38432 3.73949,-2.60865 6.16822,-7.44041 9.48364,-11.79672 1.60631,-2.12033 3.41822,-4.0993 5.6799,-5.6542 5.94976,0.97662 11.88668,6.28387 17.21962,5.01168 13.91704,-3.36682 26.48479,-17.70794 45.06654,-17.46377 5.55141,14.264 -30.41702,20.53502 -27.41002,32.38314 30.55838,-10.76868 53.44504,-28.3224 82.21722,-52.3142 23.28502,-19.42989 62.26046,-50.03968 69.75227,-72.25812 7.22196,-21.3703 -6.14252,-83.823518 17.43807,-92.176318 16.9883,-6.00116 27.07592,14.14836 39.87496,14.97079 59.574696,3.73948 105.6821961,1.24649 154.436796,2.48013 10.5245,-2.19742 14.4953,-16.83409 27.4101,-17.45092 11.5782,-0.53971 22.6168,25.46961 35.955404,26.17638 8.3401,0.43692 15.5235,-18.53035 23.8377,-18.69741 6.4123,-0.11565 15.6647,6.42523 22.424,7.49182 3.958,0.60397 5.8726,6.66938 9.792,8.72545 3.9323,2.04323 9.8949,0.0642 13.7115,0 9.5736,-0.1542 19.0058,3.04556 27.4101,0 10.2803,-3.73948 19.1085,-13.99414 26.3049,-16.20442 10.4859,0.32126 11.9636,9.65069 22.424,9.97195 38.4743,-1.24649 250.13409,-6.42522 316.40389,-7.47896 10.7302,-0.88669 9.4322,-13.78854 24.8913,-9.97196 0.035,37.420528 0.035,74.789658 0.035,112.158778 z M 94.139576,178.20474 c -1.8505,9.17522 -1.7219,23.64484 -7.4918,34.87613 -22.5911,0.0128 -25.0841,-1.23364 -42.3422,-2.49298 -7.6589,2.50583 -2.0304,-26.20208 -7.479,-34.87614 -49.3843,-0.39836 -93.6541,4.3306 -144.490526,2.49299 -20.41938,17.51517 -33.82239,40.53033 -52.32705,59.78031 -16.69275,17.37382 -46.3259,31.05955 -47.32824,62.28617 70.49761,6.72078 149.759216,4.67757 226.707716,4.98597 2.0304,-15.31774 -15.0992999,-11.47545 -17.4379999,-22.43689 33.6424999,-39.4509 59.1890999,21.38315 92.1761999,22.43689 11.796704,-11.11564 13.017604,-28.38665 24.891404,-49.82121 12.118,-21.79438 37.1121,-38.55137 37.382,-57.28734 0.4239,-28.63081 -25.3797,-23.55488 -62.260504,-19.9439 z M -999.49844,372.50365 c 14.34111,11.41119 49.66702,1.82476 72.24526,4.99882 0,-1.65771 0,-3.31541 0,-4.99882 -12.8119,-8.23717 -59.43336,-8.23717 -72.24526,0 z m 0,27.41001 c 1.60631,6.91355 11.37266,4.93457 22.11564,5.02453 16.87265,0.15416 37.99879,-0.88668 47.64949,-2.53153 -12.7091,-9.7535 -52.98244,-5.12734 -69.76513,-2.493 z m 964.092616,119.57346 c 0.1285,16.8727 -26.2663,38.4743 -27.41,57.2874 -1.50354,25.1354 32.1004,56.6962 47.341,77.244 36.6881,49.41 70.8575,93.1787 109.6144,139.4918 17.759304,21.2032 36.662304,54.049 57.287404,64.7662 24.8399,12.9019 101.8141,13.0433 114.6003,-4.9731 21.8843,-30.8411 -21.4603,-96.6226 -32.396,-122.0793 -18.4019,-42.8306 -29.5046,-80.8294 -59.7931,-104.6413 -22.1157,1.3493 -38.3201,-3.1869 -42.3423,-19.931 -16.32,4.8317 -43.563004,3.1226 -54.807204,-4.986 9.3551,-20.4065 13.0047,-64.0852 -7.479,-84.7102 -37.0221,-1.2851 -66.9893999,4.4334 -104.6155,2.5315 z"
   id="path9"
   inkscape:connector-curvature="0"
   style="stroke-width:12.85045528" />
</svg>