<?xml version="1.0" encoding="UTF-8" standalone="no"?>
<!-- Created with Inkscape (http://www.inkscape.org/) -->

<svg
   xmlns:dc="http://purl.org/dc/elements/1.1/"
   xmlns:cc="http://creativecommons.org/ns#"
   xmlns:rdf="http://www.w3.org/1999/02/22-rdf-syntax-ns#"
   xmlns:svg="http://www.w3.org/2000/svg"
   xmlns="http://www.w3.org/2000/svg"
   xmlns:sodipodi="http://sodipodi.sourceforge.net/DTD/sodipodi-0.dtd"
   xmlns:inkscape="http://www.inkscape.org/namespaces/inkscape"
   width="210mm"
   height="297mm"
   viewBox="0 0 210 297"
   version="1.1"
   id="svg3719"
   sodipodi:docname="lcg.svg"
   inkscape:version="0.92.3 (2405546, 2018-03-11)">
  <defs
     id="defs3713" />
  <sodipodi:namedview
     id="base"
     pagecolor="#7b7986"
     bordercolor="#1a2031"
     borderopacity="1"
     inkscape:pageopacity="0"
     inkscape:pageshadow="2"
     inkscape:zoom="0.42544336"
     inkscape:cx="1068.755"
     inkscape:cy="290.52533"
     inkscape:document-units="mm"
     inkscape:current-layer="layer1"
     showgrid="false"
     inkscape:window-width="1920"
     inkscape:window-height="1017"
     inkscape:window-x="-4"
     inkscape:window-y="-4"
     inkscape:window-maximized="1" />
  <metadata
     id="metadata3716">
    <rdf:RDF>
      <cc:Work
         rdf:about="">
        <dc:format>image/svg+xml</dc:format>
        <dc:type
           rdf:resource="http://purl.org/dc/dcmitype/StillImage" />
        <dc:title></dc:title>
      </cc:Work>
    </rdf:RDF>
  </metadata>
  <g
     inkscape:label="Layer 1"
     inkscape:groupmode="layer"
     id="layer1">
    <path
       id="path55"
       style="font-style:normal;font-variant:normal;font-weight:normal;font-stretch:normal;font-size:26.06534004px;line-height:1.25;font-family:'Lovecraft\'s Diary';-inkscape-font-specification:'Lovecraft\'s Diary, Normal';font-variant-ligatures:normal;font-variant-caps:normal;font-variant-numeric:normal;font-feature-settings:normal;text-align:start;letter-spacing:0px;word-spacing:0px;writing-mode:lr-tb;text-anchor:start;fill:#000000;fill-opacity:1;stroke:none;stroke-width:4.88725758"
       d="m -22.586432,220.10066 q -0.967268,-0.33091 -1.069086,-1.01818 -0.07636,-0.71273 0.254544,-1.50181 0.330908,-0.81455 0.839997,-1.55272 0.534543,-0.76364 0.814541,-1.24727 0.152727,-0.73818 0.305454,-1.47636 0.178181,-0.73818 0.356362,-1.47636 -1.679993,0.12728 -4.021801,0.58546 -2.316353,0.43272 -3.079986,-1.34909 0,-0.91636 0,-1.78181 0,-0.8909 0,-1.78181 -0.407271,-1.37454 -0.763633,-2.62181 -0.356362,-1.24726 0.254544,-2.46908 1.501812,-0.63636 2.418171,-1.04363 0.941814,-0.40727 1.934537,-0.86545 1.018177,-0.48363 2.443626,-1.1709 1.450902,-0.68727 3.970891,-1.93454 1.069087,0 1.858174,0.35636 0.789088,0.35636 0.127272,1.95999 -1.730901,0.81455 -3.487257,1.55272 -1.730902,0.73818 -2.978169,1.75636 -1.221813,0.99272 -1.705447,2.41817 -0.45818,1.4 0.356362,3.53817 0.661815,0.35636 1.909083,0.12727 1.272721,-0.25454 2.112718,-0.43273 0.712724,-2.46908 1.119995,-3.56362 0.432725,-1.09454 2.901805,-2.03635 1.476357,0.28 1.247267,2.06181 -0.203635,1.78181 -1.170904,4.07271 -0.941814,2.26544 -2.163626,4.50543 -1.221813,2.21454 -1.730902,3.33453 -0.585452,0.86545 -1.298176,1.88363 -0.712724,1.01818 -1.756356,1.17091 z" />
    <path
       id="path57"
       style="font-style:normal;font-variant:normal;font-weight:normal;font-stretch:normal;font-size:26.06534004px;line-height:1.25;font-family:'Lovecraft\'s Diary';-inkscape-font-specification:'Lovecraft\'s Diary, Normal';font-variant-ligatures:normal;font-variant-caps:normal;font-variant-numeric:normal;font-feature-settings:normal;text-align:start;letter-spacing:0px;word-spacing:0px;writing-mode:lr-tb;text-anchor:start;fill:#000000;fill-opacity:1;stroke:none;stroke-width:4.88725758"
       d="m 1.9516429,210.24979 q -0.96726847,-0.35636 -1.24726724,-1.52727 -0.27999877,-1.1709 0,-2.2909 0.27999877,-1.11999 1.06908624,-1.75635 0.7890874,-0.63636 1.9854458,0.0764 0.3309076,0.81454 0.7381786,1.78181 0.4327253,0.94182 0.4581798,1.78181 0.025454,0.81454 -0.6109064,1.37454 -0.6109064,0.56 -2.3927168,0.56 z m 0.3309076,9.90177 q -0.9927229,-0.40727 -1.0690862,-1.01817 -0.050909,-0.63636 0.3309077,-1.42545 0.076363,0.40727 1.3236305,0.12727 1.2727217,-0.30545 2.7745333,-0.91636 1.5018116,-0.63636 2.8254421,-1.39999 1.349085,-0.76364 1.6036291,-1.29818 0.45818,-4.25089 -0.8909049,-6.61815 -1.349085,-2.39272 -3.7163474,-5.52361 -0.3818165,-0.15273 -0.7381785,-0.28 -0.3309077,-0.12727 -0.6363609,-0.28 -0.5854519,-1.52727 0.6109064,-2.2909 1.1963584,-0.76363 3.0545321,-1.09454 1.8581736,-0.33091 3.8436192,-0.40727 2.010901,-0.0764 3.079987,-0.25455 1.603629,0.86545 2.112718,3.02908 0.534543,2.13817 0.152726,4.19998 -0.458179,0.28 -0.738178,0.43273 -0.254545,0.12727 -0.68727,0.0509 -0.68727,-1.70545 -1.196358,-2.64726 -0.483635,-0.94182 -2.189082,-0.94182 -1.043631,1.04363 -0.610906,1.80727 0.45818,0.76363 1.145449,2.08726 1.170904,4.32725 1.018178,7.45815 -0.152727,3.10544 -4.6072527,5.31998 -1.4509027,1.1709 -3.3090763,1.42544 -1.8327193,0.22909 -3.4872575,0.45818 z" />
    <path
       id="path59"
       style="font-style:normal;font-variant:normal;font-weight:normal;font-stretch:normal;font-size:26.06534004px;line-height:1.25;font-family:'Lovecraft\'s Diary';-inkscape-font-specification:'Lovecraft\'s Diary, Normal';font-variant-ligatures:normal;font-variant-caps:normal;font-variant-numeric:normal;font-feature-settings:normal;text-align:start;letter-spacing:0px;word-spacing:0px;writing-mode:lr-tb;text-anchor:start;fill:#000000;fill-opacity:1;stroke:none;stroke-width:4.88725758"
       d="m 38.962391,211.57342 q -1.32363,-0.76363 -1.170904,-2.13817 0.178181,-1.4 0.178181,-2.72363 -0.458179,-1.75635 -0.890905,-3.00362 -0.432725,-1.24727 -0.890905,-2.79999 -1.425448,-1.55272 -1.221813,-2.26544 0.22909,-0.73818 1.247267,-0.96727 1.018178,-0.25454 2.392717,-0.20364 1.399994,0.0509 2.290899,0.0509 2.214536,0.81454 1.654538,3.1309 -0.559997,2.2909 -1.145449,3.97089 -0.45818,2.79999 -0.559998,3.53817 -0.07636,0.73817 -0.178181,2.41817 -0.381816,0.66181 -0.661815,0.83999 -0.279999,0.15273 -1.043632,0.15273 z m -5.523612,8.3236 q -0.254544,-0.0509 -0.763633,-0.20364 -1.629084,-2.46908 -0.941814,-3.25816 0.68727,-0.81454 3.334531,-0.99273 0.738179,-1.06908 1.501812,-2.21453 0.789087,-1.14545 2.392716,-0.33091 0.559998,0.99272 0.101818,2.16363 -0.45818,1.1709 -1.425448,2.21453 -0.941814,1.01818 -2.138173,1.75636 -1.170904,0.73818 -2.061809,0.86545 z m 10.003593,0.17818 q -1.298176,-0.45818 -1.069087,-1.55272 0.254545,-1.11999 0.254545,-2.11272 -0.839997,-1.09454 -1.705447,-2.39271 -0.839997,-1.32363 1.018177,-2.16363 1.170904,0.22909 1.629084,1.11999 0.45818,0.89091 1.425448,1.93454 1.654538,0.63636 2.087264,1.52727 0.432725,0.8909 0.02545,1.70544 -0.381816,0.81455 -1.399994,1.37454 -1.018177,0.56 -2.265444,0.56 z" />
    <path
       id="path61"
       style="font-style:normal;font-variant:normal;font-weight:normal;font-stretch:normal;font-size:26.06534004px;line-height:1.25;font-family:'Lovecraft\'s Diary';-inkscape-font-specification:'Lovecraft\'s Diary, Normal';font-variant-ligatures:normal;font-variant-caps:normal;font-variant-numeric:normal;font-feature-settings:normal;text-align:start;letter-spacing:0px;word-spacing:0px;writing-mode:lr-tb;text-anchor:start;fill:#000000;fill-opacity:1;stroke:none;stroke-width:4.88725758"
       d="m 72.587696,218.9043 q -2.876351,-1.55272 -4.734525,-2.16363 -1.858174,-0.61091 -2.570898,-1.37454 -0.712724,-0.76363 -0.152726,-2.18908 0.559997,-1.4509 2.545443,-4.70907 0.68727,-0.33091 1.374539,0.38182 0.712725,0.71272 1.298177,1.83272 0.585451,1.09454 0.967268,2.29089 0.407271,1.19636 0.534543,1.85818 0.610906,0.20363 0.91636,0.33091 0.483634,-1.42545 0.941814,-2.82545 0.45818,-1.39999 0.687269,-2.77453 -0.559997,-0.20364 -2.392716,-1.42545 -1.83272,-1.22181 -3.054532,-1.75635 -1.247268,-0.84 -2.825442,-1.45091 -1.552721,-0.6109 -2.92726,-1.34908 -1.349085,-0.76363 -2.214536,-1.85818 -0.839996,-1.09454 -0.661815,-2.9018 0.763633,-0.43273 0.992723,-0.48364 0.229089,-0.0764 1.272721,0.0255 1.399994,1.80726 3.181804,2.77453 1.781811,0.94182 3.792711,1.52727 2.0109,0.56 4.149073,0.96727 2.163627,0.40727 4.327253,1.09454 1.552721,1.29817 1.298177,2.39271 -0.254545,1.06909 -1.399994,2.79999 -0.279999,0.96727 -0.661816,2.49454 -0.356362,1.52726 -0.967268,2.97817 -0.585452,1.42544 -1.501812,2.46908 -0.890905,1.04363 -2.214535,1.04363 z" />
    <path
       id="path63"
       style="font-style:normal;font-variant:normal;font-weight:normal;font-stretch:normal;font-size:26.06534004px;line-height:1.25;font-family:'Lovecraft\'s Diary';-inkscape-font-specification:'Lovecraft\'s Diary, Normal';font-variant-ligatures:normal;font-variant-caps:normal;font-variant-numeric:normal;font-feature-settings:normal;text-align:start;letter-spacing:0px;word-spacing:0px;writing-mode:lr-tb;text-anchor:start;fill:#000000;fill-opacity:1;stroke:none;stroke-width:4.88725758"
       d="m 102.82756,212.28614 q -0.81454,-0.3309 -1.09454,-1.37453 -0.28,-1.04364 -0.30545,-2.2909 0,-1.24727 0.10182,-2.44363 0.10181,-1.22181 0.10181,-1.90908 -0.17818,-1.47636 -0.43272,-2.72363 -0.25455,-1.24726 -0.15273,-2.13817 0.12727,-0.91636 0.84,-1.39999 0.71272,-0.50909 2.46908,-0.50909 1.60363,1.24727 1.55272,1.88363 -0.0255,0.63636 -0.68727,2.72362 -0.12727,2.5709 -0.20364,3.99635 -0.0764,1.42545 -0.15272,2.2909 -0.0509,0.86545 -0.12728,1.4509 -0.0509,0.56 -0.15272,1.42545 -0.33091,0.73818 -0.73818,0.83999 -0.38182,0.10182 -1.01818,0.17818 z m -5.930881,0.61091 q -0.712724,-0.45818 -0.91636,-0.61091 -0.178181,-0.15272 -0.585452,-0.68727 -0.814542,-4.0218 -1.272721,-6.21088 -0.432726,-2.18908 -0.636361,-3.28362 -0.203636,-1.09454 -0.22909,-1.4509 -0.02545,-0.38182 -0.02545,-0.73818 0.407271,-0.91636 2.749079,-1.52727 2.341808,-0.6109 3.258168,-0.12727 0.559997,1.09454 0.610906,2.97817 0.07636,1.85817 -0.152727,3.94544 -0.203635,2.08726 -0.610906,4.09816 -0.407271,2.0109 -0.789087,3.33453 -0.45818,0.22909 -0.636361,0.25455 -0.178181,0.0255 -0.763633,0.0255 z m 9.189051,3.76726 q -0.99272,-0.40727 -1.14545,-1.06909 -0.12727,-0.66181 0.12727,-1.39999 0.28,-0.76364 0.73818,-1.52727 0.45818,-0.78909 0.66182,-1.39999 0,-0.94182 -0.12728,-2.03636 -0.10181,-1.09454 -0.0255,-2.03635 0.10182,-0.94182 0.58545,-1.57818 0.48364,-0.63636 1.67999,-0.63636 0.50909,0.35636 0.68727,1.70545 0.20364,1.32363 0.22909,2.95271 0.0255,1.62909 -0.0509,3.20726 -0.0509,1.55272 -0.0255,2.31636 -0.61091,1.4509 -1.22181,1.47635 -0.61091,0.0255 -2.11272,0.0255 z" />
    <path
       id="path65"
       style="font-style:normal;font-variant:normal;font-weight:normal;font-stretch:normal;font-size:26.06534004px;line-height:1.25;font-family:'Lovecraft\'s Diary';-inkscape-font-specification:'Lovecraft\'s Diary, Normal';font-variant-ligatures:normal;font-variant-caps:normal;font-variant-numeric:normal;font-feature-settings:normal;text-align:start;letter-spacing:0px;word-spacing:0px;writing-mode:lr-tb;text-anchor:start;fill:#000000;fill-opacity:1;stroke:none;stroke-width:4.88725758"
       d="m 128.00201,207.83162 q -0.94182,-0.38182 -0.91636,-1.09454 0.0509,-0.73818 0.55999,-1.47636 0.50909,-0.76363 1.22182,-1.37454 0.73818,-0.63636 1.1709,-0.86545 0.15273,-0.78909 0.22909,-1.04363 0.0764,-0.25455 0.0509,-0.53454 -0.68727,0 -1.88363,0.12727 -1.1709,0.12727 -1.65454,-0.17818 -0.68727,-1.62909 0.76364,-2.18908 1.47635,-0.56 3.25816,-0.0509 1.80727,0.50909 3.02908,2.03635 1.24727,1.52727 0.15273,4.0218 -0.91636,0.45818 -3.00362,1.55272 -2.06181,1.06909 -2.97817,1.06909 z m -2.31636,6.13452 q -1.01817,-0.61091 -1.06908,-1.09454 -0.0509,-0.50909 0.40727,-0.89091 0.45818,-0.40727 1.19636,-0.71272 0.76363,-0.30546 1.37454,-0.56 1.4509,-1.1709 2.21453,-1.83272 0.78909,-0.68727 1.50181,-1.09454 0.71273,-0.43273 1.70545,-0.71272 0.99272,-0.28 2.87635,-0.71273 0.91636,-0.45818 2.2909,-1.32363 1.39999,-0.86545 2.62181,-1.27272 1.22181,-0.43273 1.98544,0.0255 0.76364,0.45818 0.50909,2.62181 -1.32363,1.75636 -3.61453,2.08726 -2.26544,0.33091 -4.19998,0.56 -2.16363,0.99272 -4.88725,2.95272 -2.69817,1.95999 -4.91271,1.95999 z m 10.74177,4.35271 q -0.96726,-0.25455 -2.0618,-0.63637 -1.06909,-0.40727 -1.85818,-1.01817 -0.76363,-0.61091 -1.01818,-1.45091 -0.22909,-0.83999 0.50909,-1.98544 0.40727,-0.22909 1.29818,-0.86545 0.8909,-0.63636 1.88363,-1.14545 1.01817,-0.53454 1.93453,-0.68727 0.94182,-0.17818 1.42545,0.50909 0,2.49453 -0.12727,2.9018 -0.10182,0.38182 -2.46908,1.45091 -0.0255,0.0764 -0.0509,0.15272 0,0.0509 0,0.12727 1.60363,0.25455 2.46908,0.33091 0.89091,0.0764 0.71273,1.98545 -0.58546,0.40727 -1.32364,0.38181 -0.71272,-0.0509 -1.32363,-0.0509 z" />
    <path
       id="path67"
       style="font-style:normal;font-variant:normal;font-weight:normal;font-stretch:normal;font-size:26.06534004px;line-height:1.25;font-family:'Lovecraft\'s Diary';-inkscape-font-specification:'Lovecraft\'s Diary, Normal';font-variant-ligatures:normal;font-variant-caps:normal;font-variant-numeric:normal;font-feature-settings:normal;text-align:start;letter-spacing:0px;word-spacing:0px;writing-mode:lr-tb;text-anchor:start;fill:#000000;fill-opacity:1;stroke:none;stroke-width:4.88725758"
       d="m 173.69819,212.20978 q -0.76364,-0.22909 -1.55272,-0.48363 -0.76364,-0.28 -1.50182,-0.50909 -0.20363,-0.38182 -0.38181,-0.73818 -0.17818,-0.38182 -0.35636,-0.76363 0,-0.96727 0.55999,-1.78181 0.58545,-0.81455 1.29818,-1.04364 0.71272,-0.25454 1.34908,0.25455 0.63636,0.48363 0.73818,2.08726 1.29818,0.48364 1.47636,1.7309 0.17818,1.24727 -1.62908,1.24727 z m -4.0218,7.83997 q -4.02181,-0.78909 -6.3127,-3.66544 -2.26545,-2.90181 -2.77454,-6.33816 -0.48363,-3.4618 0.84,-6.74542 1.32363,-3.30908 4.53089,-4.91271 0.71272,-0.15272 2.51999,-0.40727 1.80726,-0.28 3.71634,-0.3309 1.90909,-0.0764 3.4109,0.22909 1.52726,0.27999 1.70545,1.24726 -1.98545,2.18908 -3.91999,2.23999 -1.90908,0.0509 -4.68361,0.22909 -3.02908,1.52727 -3.79271,5.47271 -0.73818,3.91998 0.0254,6.97451 0.71272,0.96727 1.04363,1.24727 0.33091,0.28 0.33091,0.50909 4.81089,2.51999 8.8836,2.18908 4.09816,-0.35636 6.5927,-5.54907 0.0255,-0.58545 -0.15273,-1.90908 -0.17818,-1.34909 -0.12727,-2.49454 0.0509,-1.1709 0.50909,-1.67999 0.48363,-0.50909 1.78181,0.53454 0.55999,2.36727 0.38181,5.44725 -0.17818,3.07999 -1.80726,5.1418 -3.1309,2.21453 -6.13452,2.39272 -2.97817,0.17818 -6.56724,0.17818 z" />
    <path
       inkscape:connector-curvature="0"
       id="path69"
       style="font-style:normal;font-variant:normal;font-weight:normal;font-stretch:normal;font-size:26.06534004px;line-height:1.25;font-family:'Lovecraft\'s Diary';-inkscape-font-specification:'Lovecraft\'s Diary, Normal';font-variant-ligatures:normal;font-variant-caps:normal;font-variant-numeric:normal;font-feature-settings:normal;text-align:start;letter-spacing:0px;word-spacing:0px;writing-mode:lr-tb;text-anchor:start;fill:#000000;fill-opacity:1;stroke:none;stroke-width:4.88725758"
       d="m 202.35988,214.11886 q -2.23999,-0.99272 -2.36727,-2.2909 -0.10181,-1.29817 0.56,-3.35998 -1.95999,-0.17818 -2.54544,-1.37454 -0.56,-1.22181 -0.30545,-2.77453 0.25454,-1.55272 1.04363,-3.07999 0.81454,-1.55272 1.65454,-2.39272 1.62908,-0.53454 4.14907,-1.11999 2.54544,-0.61091 4.3018,0.15273 0.8909,1.83271 -0.30546,2.13817 -1.19635,0.30545 -2.3418,0.43272 -0.35637,0.45818 -0.50909,0.68727 -1.78181,0.68727 -2.5709,1.93454 -0.76363,1.22181 -1.06909,3.13089 0.63636,-0.38181 1.24727,-1.04363 0.63636,-0.66181 1.32363,-1.14545 1.7309,-0.45818 3.69089,-0.43272 1.96,0 3.63999,1.09454 0.22909,1.98544 -0.94182,2.0109 -1.14545,0.0255 -2.9018,0.0255 -2.54544,1.14545 -3.23271,2.69817 -0.66182,1.55272 -1.09455,4.19999 -0.48363,0.27999 -0.73817,0.40727 -0.25455,0.10181 -0.68727,0.10181 z m 10.13086,5.90543 q -1.90908,-0.48363 -2.5709,-2.41817 -0.63636,-1.93454 -1.4509,-3.38544 -0.45818,-0.50909 -1.22181,-1.37454 -0.73818,-0.86545 -1.17091,-1.67999 -0.40727,-0.81454 -0.17818,-1.42545 0.22909,-0.61091 1.75636,-0.61091 2.0109,1.22182 4.14907,3.51272 2.16363,2.26544 4.14907,4.04725 0.99273,2.26545 -0.40727,2.79999 -1.37454,0.53454 -3.05453,0.53454 z" />
    <path
       inkscape:connector-curvature="0"
       id="path71"
       style="font-style:normal;font-variant:normal;font-weight:normal;font-stretch:normal;font-size:26.06534004px;line-height:1.25;font-family:'Lovecraft\'s Diary';-inkscape-font-specification:'Lovecraft\'s Diary, Normal';font-variant-ligatures:normal;font-variant-caps:normal;font-variant-numeric:normal;font-feature-settings:normal;text-align:start;letter-spacing:0px;word-spacing:0px;writing-mode:lr-tb;text-anchor:start;fill:#000000;fill-opacity:1;stroke:none;stroke-width:4.88725758"
       d="m 230.76701,203.148 q -0.45818,-0.20363 -0.71273,-0.38181 -0.25454,-0.20364 -0.48363,-0.28 -0.20363,-0.78909 -0.33091,-1.01818 -0.12727,-0.25454 -0.66181,-0.61091 -0.22909,-1.37454 0.35636,-2.26544 0.61091,-0.89091 1.4509,-1.12 0.86545,-0.25454 1.7309,0.25455 0.89091,0.50909 1.24727,1.90908 -0.10182,0.58545 -0.48363,1.39999 -0.35637,0.81455 -0.61091,1.93454 -0.45818,0.15273 -0.66181,0.17818 -0.17819,0 -0.84,0 z m 0.58545,7.35633 q -2.67271,-1.83272 -2.51999,-3.84362 0.15273,-2.0109 3.7418,-2.0109 0.63636,0.53455 0.96727,1.52727 0.33091,0.99272 0.20364,1.95999 -0.10182,0.94182 -0.68727,1.65454 -0.56,0.71272 -1.70545,0.71272 z m 6.89815,9.59633 q -1.04363,-0.58546 -1.4509,-1.24727 -0.38182,-0.68727 -0.73818,-1.06909 -0.33091,-0.40727 -0.96727,-0.35636 -0.6109,0.0509 -2.08726,0.86545 -2.08726,0 -3.00362,-0.99272 -0.89091,-0.99273 -0.81455,-2.13817 0.0764,-1.14545 1.04364,-1.98545 0.96726,-0.86545 2.6218,-0.56 0.25455,0.43273 0.53455,0.86545 0.27999,0.43273 0.58545,0.86545 0.38181,0.0509 0.96727,-0.0255 0.6109,-0.0764 1.95999,-0.15273 -0.78909,-4.07271 -1.85818,-8.19633 -1.06908,-4.14907 -0.0764,-8.11996 0.78909,-0.25454 1.80727,-0.40727 1.01817,-0.15273 1.80726,0.0764 0.78909,0.20364 1.12,0.91636 0.35636,0.68727 -0.17819,2.11272 -0.0764,4.5818 0.10182,9.23996 0.20364,4.63271 0.20364,9.34178 -0.30546,0.43272 -0.50909,0.81454 -0.61091,0.0509 -1.06909,0.15273 z" />
    <path
       inkscape:connector-curvature="0"
       id="path73"
       style="font-style:normal;font-variant:normal;font-weight:normal;font-stretch:normal;font-size:26.06534004px;line-height:1.25;font-family:'Lovecraft\'s Diary';-inkscape-font-specification:'Lovecraft\'s Diary, Normal';font-variant-ligatures:normal;font-variant-caps:normal;font-variant-numeric:normal;font-feature-settings:normal;text-align:start;letter-spacing:0px;word-spacing:0px;writing-mode:lr-tb;text-anchor:start;fill:#000000;fill-opacity:1;stroke:none;stroke-width:4.88725758"
       d="m 263.6287,220.02429 q -1.57818,-0.81454 -2.62181,-2.59635 -1.04363,-1.78181 -1.85817,-3.89453 -0.78909,-2.11272 -1.47636,-4.22543 -0.66182,-2.11272 -1.47636,-3.61453 0,-0.30546 0.0255,-0.61091 0.0255,-0.33091 0.0509,-0.66182 0.68727,-0.22909 0.81454,-0.30545 0.15272,-0.0764 0.38181,-0.30545 0.99273,0.17818 1.90909,1.78181 0.94181,1.60363 1.75635,3.58907 0.81454,1.98545 1.50181,3.84362 0.68727,1.85818 1.19636,2.5709 1.17091,0.63636 1.75636,0.0255 0.58545,-0.63637 0.91636,-1.65454 0.33091,-1.04363 0.58545,-2.03636 0.28,-0.99272 0.86545,-1.11999 0.58545,-1.75636 1.37454,-4.35271 0.81454,-2.59635 0.81454,-4.35271 -1.09454,-1.4509 -1.88363,-0.68727 -0.76363,0.73818 -1.27272,2.2909 -0.50909,1.55272 -0.78908,3.1818 -0.25455,1.62909 -0.33091,1.96 -1.19636,-0.0764 -1.37454,-0.96727 -0.15273,-0.89091 -0.0255,-2.11272 0.15273,-1.22181 0.22909,-2.51999 0.0764,-1.32363 -0.63636,-2.2909 -1.65454,-0.53454 -3.28362,-0.56 -1.60363,-0.0255 -3.15635,-0.0255 -1.4509,0.53454 -2.06181,0.10182 -0.58545,-0.45818 -0.58545,-1.68 0.53454,-0.71272 3.15635,-0.99272 2.62181,-0.30545 5.65088,-0.33091 3.02908,-0.0255 5.65089,0.17819 2.62181,0.20363 3.1818,0.45817 1.47636,2.39272 0.40727,5.06544 -1.06908,2.64726 -1.98544,5.24361 -0.35636,1.42545 -0.89091,3.41089 -0.50909,1.98545 -1.37454,3.81817 -0.86545,1.80726 -2.11271,3.10544 -1.24727,1.27272 -3.02908,1.27272 z" />
    <path
       inkscape:connector-curvature="0"
       id="path75"
       style="font-style:normal;font-variant:normal;font-weight:normal;font-stretch:normal;font-size:26.06534004px;line-height:1.25;font-family:'Lovecraft\'s Diary';-inkscape-font-specification:'Lovecraft\'s Diary, Normal';font-variant-ligatures:normal;font-variant-caps:normal;font-variant-numeric:normal;font-feature-settings:normal;text-align:start;letter-spacing:0px;word-spacing:0px;writing-mode:lr-tb;text-anchor:start;fill:#000000;fill-opacity:1;stroke:none;stroke-width:4.88725758"
       d="m 300.66489,213.78796 q -1.04364,-0.50909 -1.32363,-0.73818 -0.25455,-0.25455 -0.12728,-1.24727 2.82545,-0.10182 3.71635,-0.63636 0.91636,-0.56 0.63636,-3.4618 -0.68727,-1.22182 -1.55272,-1.29818 -0.86545,-0.0764 -1.83272,0.25454 -0.94181,0.30546 -1.93454,0.66182 -0.96726,0.35636 -1.88362,-0.0509 -0.20364,-0.58545 -0.30546,-1.90908 -0.10181,-1.32363 -0.10181,-2.77453 0,-1.45091 0.10181,-2.72363 0.10182,-1.27272 0.30546,-1.7309 2.11271,-0.76363 3.43634,-0.45818 1.34909,0.28 1.34909,2.74908 -0.50909,1.11999 -1.60363,1.98544 -1.09454,0.84 -0.48363,2.44363 0.68727,0.35636 1.52726,0.15273 0.84,-0.22909 1.7309,-0.53455 0.89091,-0.30545 1.75636,-0.45818 0.8909,-0.15272 1.70545,0.28 1.37454,3.58908 0.10181,6.54179 -1.27272,2.95272 -5.21815,2.95272 z m -11.32723,0.43272 q -1.19636,-0.30545 -1.80726,-1.67999 -0.58545,-1.4 -0.66182,-3.02908 -0.0764,-1.62908 0.33091,-3.07999 0.40727,-1.47635 1.27272,-1.95999 1.52727,0 3.81817,0.25455 2.2909,0.25454 2.54544,2.41817 -0.81454,0.0255 -1.62908,0.0764 -0.78909,0.0255 -1.57818,0.0509 0,0.10182 0,0.22909 0,0.10182 0,0.20364 -0.0764,0 -0.15272,0 -0.0509,0 -0.12728,0 -1.09454,2.77453 -0.0255,3.58907 1.06908,0.81454 3.86907,0.71273 -0.15272,2.08726 -2.26544,2.16362 -2.08727,0.0509 -3.58908,0.0509 z m 5.57452,5.72725 q -1.85817,-1.09454 -2.06181,-2.06181 -0.20363,-0.96727 0.58546,-1.67999 0.81454,-0.73818 2.26544,-1.14545 1.4509,-0.43273 2.95272,-0.43273 0.83999,0.68727 0.73817,1.34909 -0.0764,0.63636 -0.55999,1.27272 -0.45818,0.61091 -1.04364,1.24727 -0.58545,0.6109 -0.73817,1.22181 -0.40727,0.17818 -0.68727,0.20363 -0.25455,0.0255 -1.45091,0.0255 z" />
    <path
       inkscape:connector-curvature="0"
       id="path77"
       style="font-style:normal;font-variant:normal;font-weight:normal;font-stretch:normal;font-size:26.06534004px;line-height:1.25;font-family:'Lovecraft\'s Diary';-inkscape-font-specification:'Lovecraft\'s Diary, Normal';font-variant-ligatures:normal;font-variant-caps:normal;font-variant-numeric:normal;font-feature-settings:normal;text-align:start;letter-spacing:0px;word-spacing:0px;writing-mode:lr-tb;text-anchor:start;fill:#000000;fill-opacity:1;stroke:none;stroke-width:4.88725758"
       d="m 327.23932,211.06433 q -1.32363,-0.91636 -0.0255,-2.26544 1.32363,-1.37454 3.1309,-2.06181 1.80726,-0.68727 3.02908,-0.12727 1.24726,0.55999 -0.20364,3.48725 -1.60363,0.58546 -3.00362,0.76364 -1.37454,0.15272 -2.92726,0.20363 z m -5.01453,-3.48726 q -0.35636,-1.34908 -0.91635,-2.77453 -0.56,-1.4509 -0.81455,-2.77453 -0.22909,-1.34909 0.0764,-2.49454 0.3309,-1.1709 1.70544,-1.98544 2.92726,0 3.76726,0.78908 0.86545,0.76364 -0.38182,3.81817 -0.28,4.27634 -0.45818,8.55269 -1.01817,1.09454 -1.60363,0.63636 -0.58545,-0.48363 -0.8909,-1.42545 -0.30545,-0.94181 -0.40727,-1.78181 -0.0764,-0.86545 -0.0764,-0.56 z m 8.17088,12.52359 q -1.01818,-0.10182 -1.29818,-0.15273 -0.25454,-0.0764 -0.78909,-0.30545 -0.15272,-2.11272 -0.48363,-3.23272 -0.33091,-1.11999 -2.23999,-1.7309 -1.67999,-2.39272 1.22181,-2.39272 1.06909,0.40728 2.41817,1.04364 1.34909,0.6109 2.41818,1.50181 1.09454,0.8909 1.62908,2.06181 0.53454,1.14545 0,2.59635 -0.45818,0.22909 -1.39999,0.43272 -0.91636,0.17819 -1.47636,0.17819 z" />
    <path
       inkscape:connector-curvature="0"
       id="path79"
       style="font-style:normal;font-variant:normal;font-weight:normal;font-stretch:normal;font-size:26.06534004px;line-height:1.25;font-family:'Lovecraft\'s Diary';-inkscape-font-specification:'Lovecraft\'s Diary, Normal';font-variant-ligatures:normal;font-variant-caps:normal;font-variant-numeric:normal;font-feature-settings:normal;text-align:start;letter-spacing:0px;word-spacing:0px;writing-mode:lr-tb;text-anchor:start;fill:#000000;fill-opacity:1;stroke:none;stroke-width:4.88725758"
       d="m 349.18105,202.66437 q -2.08726,-1.55272 -0.0764,-2.51999 2.0109,-0.99272 5.34543,-1.52727 3.33453,-0.53454 6.5927,-0.73817 3.28362,-0.20364 3.66544,-0.25455 1.93453,0.89091 1.27272,2.67272 -0.66182,1.75635 -2.59635,2.21453 -7.10179,0.0509 -14.20358,0.15273 z m 1.75636,8.73087 q -1.4509,-0.61091 -1.88363,-2.03636 -0.43273,-1.4509 0.30545,-2.74907 1.01818,-0.43273 3.63999,-0.53455 2.6218,-0.10182 5.44725,0.0764 2.82544,0.15272 5.11634,0.58545 2.31635,0.43272 2.69817,1.04363 0.20363,1.50181 -1.22182,2.13817 -1.39999,0.61091 -3.33453,0.76364 -1.93453,0.15272 -3.79271,0.0509 -1.85817,-0.10181 -2.51999,-0.0764 -0.68727,0.22909 -1.24726,0.33091 -0.56,0.10182 -3.20726,0.40727 z m 5.62543,8.73087 q -1.34909,-0.71272 -1.57818,-2.0109 -0.20363,-1.32363 0.25455,-2.59635 0.48363,-1.29818 1.42545,-2.26545 0.96726,-0.96727 1.98544,-0.96727 0.43273,0.45818 0.71273,1.50182 0.27999,1.04363 0.35636,2.21453 0.0764,1.17091 -0.0764,2.26545 -0.15272,1.06908 -0.55999,1.57817 -0.91636,0.22909 -1.22182,0.25455 -0.30545,0.0255 -1.29817,0.0255 z" />
    <path
       inkscape:connector-curvature="0"
       id="path81"
       style="font-style:normal;font-variant:normal;font-weight:normal;font-stretch:normal;font-size:26.06534004px;line-height:1.25;font-family:'Lovecraft\'s Diary';-inkscape-font-specification:'Lovecraft\'s Diary, Normal';font-variant-ligatures:normal;font-variant-caps:normal;font-variant-numeric:normal;font-feature-settings:normal;text-align:start;letter-spacing:0px;word-spacing:0px;writing-mode:lr-tb;text-anchor:start;fill:#000000;fill-opacity:1;stroke:none;stroke-width:4.88725758"
       d="m 387.13361,214.85704 q -1.78181,-0.71272 -1.62908,-1.78181 0.15273,-1.09454 1.06909,-1.75635 0.91636,-0.68727 2.0109,-0.56 1.11999,0.12727 1.27272,1.83272 -0.61091,1.11999 -1.17091,2.26544 -0.40727,0 -0.78908,0 -0.38182,0 -0.76364,0 z m -5.93088,2.77454 q -0.94181,-0.63637 -1.09454,-1.93454 -0.15273,-1.29818 0.0764,-2.74908 0.22909,-1.4509 0.63636,-2.82544 0.40728,-1.37454 0.61091,-2.18908 0.68727,-1.32363 1.14545,-2.08727 0.45818,-0.78908 0.96727,-1.34908 0.50909,-0.58545 1.19636,-1.12 0.71272,-0.55999 1.90908,-1.4509 1.24727,-1.37454 3.48726,-2.87635 2.23999,-1.50181 4.3018,-1.50181 0.6109,0.38181 1.52726,1.19636 0.94182,0.81454 1.80727,1.83272 0.86545,1.01817 1.4509,2.08726 0.58545,1.04363 0.50909,1.88363 -1.12,0.58545 -2.16363,-0.20364 -1.04363,-0.81454 -1.88363,-1.19636 -3.43635,-0.58545 -6.00724,0.71273 -2.5709,1.27272 -4.35271,3.91998 -2.36726,2.2909 -2.54544,4.25089 -0.15273,1.95999 -0.25455,5.24361 -0.43272,0.30546 -0.68727,0.33091 -0.22909,0.0255 -0.63636,0.0255 z m 9.79996,2.49453 q -0.78909,-0.48363 -1.14545,-0.78909 -0.33091,-0.33091 -0.33091,-1.14545 2.54544,-3.13089 3.15635,-5.59997 0.63636,-2.46908 -0.58545,-6.21088 1.98544,-0.66182 2.85089,0.96726 0.89091,1.62909 0.96727,4.09817 0.10182,2.44362 -0.40727,4.98907 -0.50909,2.51999 -1.29817,3.63998 -0.81455,0 -1.62909,0.0255 -0.78908,0.0255 -1.57817,0.0255 z" />
    <path
       inkscape:connector-curvature="0"
       id="path83"
       style="font-style:normal;font-variant:normal;font-weight:normal;font-stretch:normal;font-size:26.06534004px;line-height:1.25;font-family:'Lovecraft\'s Diary';-inkscape-font-specification:'Lovecraft\'s Diary, Normal';font-variant-ligatures:normal;font-variant-caps:normal;font-variant-numeric:normal;font-feature-settings:normal;text-align:start;letter-spacing:0px;word-spacing:0px;writing-mode:lr-tb;text-anchor:start;fill:#000000;fill-opacity:1;stroke:none;stroke-width:4.88725758"
       d="m 427.04615,220.10066 q -0.6109,-0.38182 -0.73818,-0.48364 -0.12727,-0.10182 -0.22909,-0.35636 -0.12727,-1.90908 -0.3309,-3.4618 -0.20364,-1.57818 -0.78909,-3.25817 -1.75636,-0.25455 -2.92726,-0.38182 -1.1709,-0.15272 -2.13817,0.0255 -0.94182,0.17818 -1.88363,0.81454 -0.91636,0.63636 -2.21454,1.93454 -0.45818,0.91636 -0.66181,1.4509 -0.17818,0.50909 -0.78909,2.64726 -0.22909,0.15273 -0.38182,0.17818 -0.12727,0 -0.78908,0 -0.91636,-0.91636 -0.56,-2.54544 0.35636,-1.62909 0.63636,-2.62181 1.85817,-2.36726 4.35271,-3.86907 2.49453,-1.52727 5.03998,-3.1309 -0.28,-1.80726 -1.62909,-2.62181 -1.34908,-0.81454 -2.6218,-1.80726 -1.52727,0.50909 -2.31636,0.28 -0.76363,-0.22909 -0.45818,-1.83272 1.04363,-0.78909 1.85818,-1.67999 0.83999,-0.91636 1.67999,-1.4 0.86545,-0.48363 1.90908,-0.30545 1.04363,0.17818 2.54544,1.50181 2.77454,4.47998 3.89453,9.57087 1.12,5.06543 1.12,10.38541 -0.48364,0.96727 -1.57818,0.96727 z" />
    <path
       inkscape:connector-curvature="0"
       id="path85"
       style="font-style:normal;font-variant:normal;font-weight:normal;font-stretch:normal;font-size:26.06534004px;line-height:1.25;font-family:'Lovecraft\'s Diary';-inkscape-font-specification:'Lovecraft\'s Diary, Normal';font-variant-ligatures:normal;font-variant-caps:normal;font-variant-numeric:normal;font-feature-settings:normal;text-align:start;letter-spacing:0px;word-spacing:0px;writing-mode:lr-tb;text-anchor:start;fill:#000000;fill-opacity:1;stroke:none;stroke-width:4.88725758"
       d="m 457.36239,220.22793 q -1.80727,-1.01818 -1.29818,-3.18181 0.50909,-2.18908 0.91636,-3.63998 0.28,-2.49453 0.99272,-5.7527 0.71273,-3.25817 -0.3309,-5.52361 -0.76364,-0.35637 -2.34181,-0.63637 -1.55272,-0.27999 -3.20726,-0.30545 -1.65454,-0.0509 -3.10544,0.25455 -1.42545,0.30545 -1.90908,1.06908 0.0254,0.99272 -0.12728,2.44363 -0.12727,1.42545 -2.03635,0.28 -0.61091,-2.03636 -1.19636,-3.81817 -0.58545,-1.80726 1.42545,-3.02908 1.57817,-0.12727 3.86907,-0.40727 2.31636,-0.28 4.73453,-0.40727 2.41817,-0.15272 4.6327,0 2.21454,0.15273 3.63999,0.91636 0.83999,1.42545 0.78909,3.25817 -0.0509,1.83272 -0.50909,3.79271 -0.43273,1.93454 -1.06909,3.84362 -0.61091,1.90908 -0.94181,3.4618 -0.15273,1.14545 -0.10182,2.44363 0.0764,1.27272 -0.0764,2.39271 -0.15273,1.09455 -0.73818,1.83272 -0.58545,0.71273 -2.0109,0.71273 z" />
    <path
       inkscape:connector-curvature="0"
       id="path87"
       style="font-style:normal;font-variant:normal;font-weight:normal;font-stretch:normal;font-size:26.06534004px;line-height:1.25;font-family:'Lovecraft\'s Diary';-inkscape-font-specification:'Lovecraft\'s Diary, Normal';font-variant-ligatures:normal;font-variant-caps:normal;font-variant-numeric:normal;font-feature-settings:normal;text-align:start;letter-spacing:0px;word-spacing:0px;writing-mode:lr-tb;text-anchor:start;fill:#000000;fill-opacity:1;stroke:none;stroke-width:4.88725758"
       d="m 491.72588,220.15156 q -1.83272,-1.04363 -1.39999,-2.44362 0.43272,-1.42545 1.4509,-2.59635 0.58545,-2.26545 1.01818,-4.45453 0.43272,-2.18908 -1.50181,-3.86907 -2.08727,0 -2.97817,0.22909 -0.86545,0.20363 -2.51999,1.39999 0.33091,1.34909 0.50909,2.5709 0.20363,1.22181 -2.26545,0.91636 -1.37454,-1.12 -1.60363,-2.31636 -0.20363,-1.19635 0.33091,-2.29089 0.56,-1.12 1.65454,-2.03636 1.09454,-0.91636 2.31635,-1.47636 1.50181,-0.0509 3.00363,-0.0764 1.52726,-0.0509 3.05453,-0.12727 0.25454,-0.38182 0.20363,-0.66182 -0.0509,-0.30545 -0.0509,-0.63636 -2.72362,-1.42545 -5.93088,-1.55272 -3.20726,-0.15272 -5.95634,0.76363 -0.68727,1.04364 -0.66181,1.83272 0.0509,0.76364 -1.62908,0.45818 -2.13818,-2.51999 -1.42545,-4.04725 0.71272,-1.52727 3.84362,-2.21454 2.54544,0 5.09088,0 2.5709,0 5.16725,0 3.05454,0.35637 4.47998,1.37454 1.42545,0.99273 1.78181,2.59635 0.35637,1.60363 -0.10181,3.76726 -0.43273,2.13817 -1.12,4.73453 -0.25454,1.50181 -0.33091,3.20725 -0.0509,1.70545 -0.43272,3.20726 -0.35636,1.47636 -1.24727,2.51999 -0.86545,1.04363 -2.74908,1.22181 z" />
    <path
       inkscape:connector-curvature="0"
       id="path89"
       style="font-style:normal;font-variant:normal;font-weight:normal;font-stretch:normal;font-size:26.06534004px;line-height:1.25;font-family:'Lovecraft\'s Diary';-inkscape-font-specification:'Lovecraft\'s Diary, Normal';font-variant-ligatures:normal;font-variant-caps:normal;font-variant-numeric:normal;font-feature-settings:normal;text-align:start;letter-spacing:0px;word-spacing:0px;writing-mode:lr-tb;text-anchor:start;fill:#000000;fill-opacity:1;stroke:none;stroke-width:4.88725758"
       d="m 525.5548,220.15156 q -2.21454,-0.15272 -2.31636,-0.68727 -0.0764,-0.53454 -0.0764,-2.51998 -0.25454,-1.52727 -0.99272,-2.90181 -0.73818,-1.39999 -1.37454,-2.72362 -0.63636,-1.32363 -0.89091,-2.62181 -0.25454,-1.29818 0.48364,-2.62181 2.16362,-0.78908 2.82544,0.35636 0.68727,1.12 0.91636,2.82545 0.25454,1.67999 0.61091,3.20726 0.35636,1.52726 1.93453,1.52726 1.4,-1.85817 1.37454,-3.7418 -0.0255,-1.88363 -0.0255,-4.0218 -0.71273,-2.26545 -2.11272,-3.28362 -1.37454,-1.04363 -3.1309,-1.37454 -1.75635,-0.35636 -3.71634,-0.28 -1.95999,0.0509 -3.81817,0 -0.20363,1.95999 -0.48363,2.54544 -0.25455,0.58545 -2.08727,0.58545 -1.37454,-0.63636 -1.19635,-2.77453 0.17818,-2.13817 0.68727,-3.15635 3.10544,-1.29817 7.22905,-1.09454 4.14908,0.17818 7.55997,0.17818 1.04363,0.22909 2.11272,0.50909 1.06909,0.28 2.08726,1.12 0.63636,1.42544 0.76364,4.88725 0.12727,3.43635 -0.48364,7.02542 -0.58545,3.56362 -2.0109,6.3127 -1.42545,2.72362 -3.86907,2.72362 z" />
    <path
       inkscape:connector-curvature="0"
       id="path91"
       style="font-style:normal;font-variant:normal;font-weight:normal;font-stretch:normal;font-size:26.06534004px;line-height:1.25;font-family:'Lovecraft\'s Diary';-inkscape-font-specification:'Lovecraft\'s Diary, Normal';font-variant-ligatures:normal;font-variant-caps:normal;font-variant-numeric:normal;font-feature-settings:normal;text-align:start;letter-spacing:0px;word-spacing:0px;writing-mode:lr-tb;text-anchor:start;fill:#000000;fill-opacity:1;stroke:none;stroke-width:4.88725758"
       d="m 547.26745,209.23161 q -1.09454,-0.45818 -0.96727,-1.1709 0.12728,-0.73818 0.81455,-1.27272 3.66543,-0.0764 4.83634,-0.17818 1.1709,-0.10182 2.77453,-0.15273 0.15273,-0.45818 0.58545,-0.61091 0.43273,-0.17818 0.96727,-0.40727 -0.15272,-2.9018 -1.57817,-3.28362 -1.42545,-0.38182 -3.84362,-0.53454 -1.19636,1.19636 -1.85818,0.6109 -0.66181,-0.58545 -0.48363,-1.67999 0.20364,-1.11999 1.42545,-2.13817 1.24727,-1.04363 3.91998,-0.78909 3.23271,1.32363 5.39634,4.09816 2.16363,2.77454 0.81454,6.5927 -0.94181,0.73818 -2.6218,0.96727 -1.68,0.22909 -3.56362,0.22909 -1.88363,0 -3.6909,-0.12727 -1.78181,-0.15273 -2.92726,-0.15273 z m 7.1527,6.28725 q -1.83272,-0.35636 -2.87635,-1.68 -1.04363,-1.32363 0.73818,-2.74907 0.71272,0 1.98544,0.0255 1.29818,0 2.64726,-0.12727 1.34909,-0.15273 2.49454,-0.53454 1.1709,-0.38182 1.65454,-1.14545 0.53454,-0.53455 0.63636,-1.83272 0.10181,-1.29818 0.17818,-2.51999 0.0764,-1.22182 0.35636,-1.93454 0.30545,-0.71272 1.22181,-0.0764 2.0109,5.06543 -0.86545,8.83269 -2.85089,3.7418 -8.17087,3.7418 z m -0.86545,4.5818 q -0.99272,-0.38182 -1.90908,-1.55272 -0.89091,-1.19636 0.63636,-1.88363 1.4509,-0.0255 3.66543,-0.30546 2.21454,-0.27999 3.56363,0.53455 0.22909,2.44362 -1.98545,2.82544 -2.21454,0.38182 -3.97089,0.38182 z" />
    <path
       inkscape:connector-curvature="0"
       id="path93"
       style="font-style:normal;font-variant:normal;font-weight:normal;font-stretch:normal;font-size:26.06534004px;line-height:1.25;font-family:'Lovecraft\'s Diary';-inkscape-font-specification:'Lovecraft\'s Diary, Normal';font-variant-ligatures:normal;font-variant-caps:normal;font-variant-numeric:normal;font-feature-settings:normal;text-align:start;letter-spacing:0px;word-spacing:0px;writing-mode:lr-tb;text-anchor:start;fill:#000000;fill-opacity:1;stroke:none;stroke-width:4.88725758"
       d="m 594.61268,216.51158 q 0.25454,-0.0509 0.40727,-0.0764 1.1709,-1.78181 1.27272,-2.46908 0.10182,-0.68727 -0.68727,-2.46908 -1.09454,0.0764 -1.55272,0.53454 -0.43272,0.43273 -1.19636,1.12 0,0.96726 0.33091,1.85817 0.33091,0.8909 1.42545,1.50181 z m 0,3.48726 q -1.29818,-0.12727 -2.59635,-0.81454 -1.29818,-0.68727 -2.23999,-1.70545 -0.94182,-1.04363 -1.32363,-2.31635 -0.38182,-1.27273 0.20363,-2.54545 0.0509,0 0.12727,0 0.0764,0 0.17818,0 0.68727,-1.37454 2.13818,-2.46908 1.4509,-1.09454 3.10544,-1.52726 1.67999,-0.45818 3.28362,-0.0509 1.62908,0.38181 2.67271,1.93453 0,1.57818 -0.10181,3.25817 -0.10182,1.67999 -0.63636,3.07999 -0.50909,1.37454 -1.62909,2.26544 -1.11999,0.89091 -3.1818,0.89091 z m -12.93085,0 q -1.24727,-0.43273 -1.70545,-1.93454 -0.43273,-1.52727 -0.40727,-3.35998 0.0509,-1.83272 0.40727,-3.56363 0.38182,-1.75635 0.78909,-2.64726 1.14545,-1.98544 1.14545,-3.15635 0.0254,-1.1709 -0.48364,-2.11271 -0.48363,-0.96727 -1.1709,-1.98545 -0.66182,-1.01818 -0.84,-2.69817 0.15273,-0.22909 0.30545,-0.45818 0.15273,-0.22909 0.30546,-0.45818 1.60363,-0.17818 3.02908,1.04363 1.42544,1.22182 2.92726,2.2909 0.22909,0 1.09454,-0.40727 0.86545,-0.43272 2.72362,-0.94181 1.1709,-0.15273 2.8509,-0.33091 1.67999,-0.17818 3.23271,0.0509 1.55272,0.22909 2.64726,1.09454 1.12,0.86545 1.12,2.74908 -1.09454,1.39999 -1.85818,1.24726 -0.73818,-0.15272 -2.0109,-0.66181 -3.20726,0 -5.16725,1.09454 -1.93453,1.09454 -4.45452,2.90181 -1.55272,2.29089 -1.98545,4.3527 -0.43272,2.03636 -0.43272,4.83635 0.58545,1.47635 -0.0255,2.0618 -0.58545,0.58546 -2.03635,0.99273 z" />
    <path
       inkscape:connector-curvature="0"
       id="path95"
       style="font-style:normal;font-variant:normal;font-weight:normal;font-stretch:normal;font-size:26.06534004px;line-height:1.25;font-family:'Lovecraft\'s Diary';-inkscape-font-specification:'Lovecraft\'s Diary, Normal';font-variant-ligatures:normal;font-variant-caps:normal;font-variant-numeric:normal;font-feature-settings:normal;text-align:start;letter-spacing:0px;word-spacing:0px;writing-mode:lr-tb;text-anchor:start;fill:#000000;fill-opacity:1;stroke:none;stroke-width:4.88725758"
       d="m 622.25622,220.0752 q -2.5709,-0.15273 -3.86908,-0.33091 -1.29817,-0.20363 -1.85817,-0.86545 -0.56,-0.68727 -0.58545,-2.06181 -0.0255,-1.39999 -0.0255,-3.94543 0.66182,-2.77454 0.81454,-3.56362 0.17819,-0.78909 0.48364,-2.69817 -1.57818,-0.56 -2.39272,-2.08727 -0.78909,-1.52726 0.89091,-2.46908 1.67999,0.12727 2.08726,0.17818 0.40727,0.0509 1.19636,0.20364 0.53454,-0.99272 1.83272,-2.31635 1.29817,-1.34909 2.5709,-2.03636 1.29817,-0.68727 2.21453,-0.22909 0.91636,0.43273 0.73818,2.95271 -0.68727,0.84 -1.93454,1.68 -1.22181,0.81454 -1.55272,1.88363 0.91636,0.63636 2.69817,2.03635 1.78181,1.39999 0.94182,3.02908 -1.60363,0.99272 -2.95272,-0.28 -1.32363,-1.29818 -2.6218,-1.50181 -1.14545,4.3018 -0.53455,7.02542 0.63636,2.69817 6.18543,2.69817 0.20364,-0.12727 0.43273,-0.25454 0.22909,-0.15273 0.45818,-0.30546 0.0764,-0.6109 -0.0509,-1.19635 -0.10182,-0.58546 -0.0255,-1.12 1.17091,-0.68727 1.85818,-0.25454 0.71272,0.40727 0.96726,1.37454 0.28,0.94181 0.10182,2.13817 -0.15272,1.1709 -0.68727,1.95999 -1.52726,0.61091 -3.69089,0.48363 -2.16363,-0.12727 -3.69089,-0.12727 z" />
    <path
       inkscape:connector-curvature="0"
       id="path97"
       style="font-style:normal;font-variant:normal;font-weight:normal;font-stretch:normal;font-size:26.06534004px;line-height:1.25;font-family:'Lovecraft\'s Diary';-inkscape-font-specification:'Lovecraft\'s Diary, Normal';font-variant-ligatures:normal;font-variant-caps:normal;font-variant-numeric:normal;font-feature-settings:normal;text-align:start;letter-spacing:0px;word-spacing:0px;writing-mode:lr-tb;text-anchor:start;fill:#000000;fill-opacity:1;stroke:none;stroke-width:4.88725758"
       d="m 649.31428,220.17702 q -0.86545,-0.58545 -0.99272,-1.52727 -0.12727,-0.94181 0.0509,-1.98544 0.17818,-1.04363 0.43272,-2.06181 0.25455,-1.01818 0.17818,-1.75636 -1.52726,-0.99272 -2.41817,-1.57817 -0.8909,-0.58545 -1.27272,-1.24727 -0.35636,-0.68727 -0.22909,-1.65454 0.15273,-0.99272 0.71272,-2.74908 0.30546,-0.6109 0.58546,-1.19636 0.30545,-0.58545 0.6109,-1.19635 2.18908,-1.65454 4.42907,-3.51272 2.26545,-1.88362 5.06544,-2.23999 1.1709,0.61091 2.13817,2.16363 0.99272,1.55272 0.38182,3.15635 -0.45818,0.15273 -0.68727,0.15273 -0.20364,0 -1.09454,-0.10182 -0.33091,-0.53454 -0.73818,-1.12 -1.04364,0.17819 -2.44363,1.09455 -1.37454,0.91635 -2.44362,2.16362 -1.06909,1.24727 -1.42545,2.59635 -0.35637,1.34909 0.68727,2.36727 1.06908,0.12727 1.78181,-0.40727 0.71272,-0.53455 1.42545,-1.09454 0.71272,-0.58546 1.60362,-0.91636 0.89091,-0.35637 2.31636,0.10181 0.20363,0.22909 0.45818,0.38182 0.28,0.12727 1.67999,0.73818 0.63636,1.27272 0.0764,1.93454 -0.55999,0.63636 -1.57817,0.91635 -0.99272,0.28 -2.08726,0.30546 -1.09455,0.0255 -1.52727,0.0509 -1.22181,0.50909 -1.67999,1.34908 -0.43273,0.84 -1.24727,1.85818 -0.35636,1.52726 -0.61091,3.28362 -0.25454,1.7309 -2.13817,1.7309 z" />
    <path
       inkscape:connector-curvature="0"
       id="path99"
       style="font-style:normal;font-variant:normal;font-weight:normal;font-stretch:normal;font-size:26.06534004px;line-height:1.25;font-family:'Lovecraft\'s Diary';-inkscape-font-specification:'Lovecraft\'s Diary, Normal';font-variant-ligatures:normal;font-variant-caps:normal;font-variant-numeric:normal;font-feature-settings:normal;text-align:start;letter-spacing:0px;word-spacing:0px;writing-mode:lr-tb;text-anchor:start;fill:#000000;fill-opacity:1;stroke:none;stroke-width:4.88725758"
       d="m 680.44505,209.76616 q 0.76364,0 2.23999,-0.71273 1.50182,-0.73818 0.94182,-1.83272 -1.32363,-0.0764 -2.06181,-0.10182 -0.71273,-0.0255 -1.65454,0.71273 0,0.66181 -0.0509,1.01818 -0.0254,0.3309 0.58545,0.91636 z m -0.48363,10.10541 q -2.44363,-0.78909 -3.48726,-2.39272 -1.01818,-1.60363 -1.29817,-3.61453 -0.25455,-2.03636 -0.10182,-4.25089 0.17818,-2.23999 0.15273,-4.27635 0.63636,-2.59635 2.08726,-4.12361 1.4509,-1.52727 3.41089,-2.31636 1.98545,-0.81454 4.27635,-1.04363 2.2909,-0.22909 4.6327,-0.22909 1.42545,0.68727 0.68727,2.41817 -0.83999,0.53455 -2.26544,0.68727 -1.39999,0.15273 -2.8509,0.30545 -1.42545,0.15273 -2.64726,0.50909 -1.19636,0.35637 -1.65454,1.29818 3.43635,0.10182 5.37089,1.90908 1.93454,1.78181 -0.63636,5.57452 -2.0109,1.60363 -3.35999,2.11272 -1.34908,0.50909 -3.69089,-0.25454 0.17818,0.73818 1.09454,1.70544 0.91636,0.94182 1.62908,1.98545 0.73818,1.04363 0.81455,2.08726 0.10181,1.04363 -1.37454,1.90909 -0.20364,0 -0.40727,0 -0.17818,0 -0.38182,0 z" />
    <path
       inkscape:connector-curvature="0"
       id="path101"
       style="font-style:normal;font-variant:normal;font-weight:normal;font-stretch:normal;font-size:26.06534004px;line-height:1.25;font-family:'Lovecraft\'s Diary';-inkscape-font-specification:'Lovecraft\'s Diary, Normal';font-variant-ligatures:normal;font-variant-caps:normal;font-variant-numeric:normal;font-feature-settings:normal;text-align:start;letter-spacing:0px;word-spacing:0px;writing-mode:lr-tb;text-anchor:start;fill:#000000;fill-opacity:1;stroke:none;stroke-width:4.88725758"
       d="m 706.12856,219.71884 q -1.67999,-0.81454 -1.60363,-1.42545 0.0764,-0.63636 0.0764,-2.39272 1.29817,-3.51271 1.65453,-6.97451 0.38182,-3.48726 -0.91636,-7.05088 0,-1.75635 0.86546,-3.51271 0.86545,-1.75636 3.23271,-0.45818 0.48363,1.19636 0.71272,4.75998 0.22909,3.53816 -0.0509,7.33088 -0.28,3.79271 -1.22181,6.77087 -0.91636,2.95272 -2.74908,2.95272 z m 5.49816,0.28 q -0.38182,-0.15273 -0.73818,-0.30546 -0.35636,-0.15272 -0.71272,-0.30545 -0.71273,-1.93454 0.0254,-3.48726 0.73818,-1.57817 2.87635,-1.37454 0.78909,1.14545 0.73818,3.30908 -0.0509,2.16363 -2.18908,2.16363 z" />
    <path
       inkscape:connector-curvature="0"
       id="path103"
       style="font-style:normal;font-variant:normal;font-weight:normal;font-stretch:normal;font-size:26.06534004px;line-height:1.25;font-family:'Lovecraft\'s Diary';-inkscape-font-specification:'Lovecraft\'s Diary, Normal';font-variant-ligatures:normal;font-variant-caps:normal;font-variant-numeric:normal;font-feature-settings:normal;text-align:start;letter-spacing:0px;word-spacing:0px;writing-mode:lr-tb;text-anchor:start;fill:#000000;fill-opacity:1;stroke:none;stroke-width:4.88725758"
       d="m 730.5903,203.88618 q -1.22181,-0.68727 -1.1709,-1.65454 0.0509,-0.99272 0.0509,-2.11271 0.78908,-1.22182 1.7309,-1.47636 0.94181,-0.25455 1.60363,0.25454 0.68727,0.48364 0.8909,1.65454 0.20364,1.14545 -0.45818,2.72362 -0.83999,0.45818 -1.32363,0.53455 -0.48363,0.0764 -1.32363,0.0764 z m 5.29452,16.21448 q -1.37454,-0.91636 -1.39999,-1.57818 0,-0.66181 0,-2.03635 0.68727,-3.28363 0.78909,-6.61816 0.10181,-3.35998 0.10181,-6.6436 -0.6109,-1.45091 -0.53454,-2.87635 0.10182,-1.42545 0.58545,-2.18909 0.50909,-0.78908 1.27273,-0.58545 0.76363,0.17818 1.47635,1.95999 0.63636,4.32726 0.45818,9.26542 -0.17818,4.93816 -0.17818,9.44359 -0.35636,0.91636 -0.50909,1.4 -0.66181,0.22909 -1.09454,0.35636 -0.43272,0.10182 -0.96727,0.10182 z" />
    <path
       inkscape:connector-curvature="0"
       id="path105"
       style="font-style:normal;font-variant:normal;font-weight:normal;font-stretch:normal;font-size:26.06534004px;line-height:1.25;font-family:'Lovecraft\'s Diary';-inkscape-font-specification:'Lovecraft\'s Diary, Normal';font-variant-ligatures:normal;font-variant-caps:normal;font-variant-numeric:normal;font-feature-settings:normal;text-align:start;letter-spacing:0px;word-spacing:0px;writing-mode:lr-tb;text-anchor:start;fill:#000000;fill-opacity:1;stroke:none;stroke-width:4.88725758"
       d="m 755.56107,214.14432 q -1.47636,-0.76363 -1.4509,-1.42545 0.0509,-0.68727 0.91635,-1.83272 0.94182,-0.38182 2.36727,-0.68727 1.42545,-0.33091 2.49453,-0.17818 1.09454,0.15273 1.42545,0.99272 0.33091,0.81454 -0.84,2.69817 -1.29817,0.45818 -2.46908,0.45818 -1.14545,-0.0255 -2.44362,-0.0255 z m 3.1818,5.67634 q -1.29817,-0.38182 -1.42545,-1.22182 -0.10181,-0.86545 0.99273,-1.52726 2.9018,-0.28 4.3018,-1.24727 1.42544,-0.99272 3.15635,-3.30908 -0.28,-2.6218 -0.96727,-5.03997 -0.66182,-2.41817 -1.57818,-3.89453 -0.91636,-1.47636 -1.98544,-1.62909 -1.04364,-0.15272 -2.06181,1.75636 -1.65454,0.89091 -2.06181,0.25454 -0.40727,-0.66181 -0.0509,-1.90908 0.38182,-1.24727 1.29818,-2.6218 0.94181,-1.37454 1.98544,-1.96 2.11272,0 3.89453,1.85818 1.80726,1.83272 3.10544,4.40361 1.29818,2.5709 2.03636,5.31998 0.73817,2.72363 0.73817,4.47998 -1.62908,2.72363 -4.96361,4.50544 -3.33453,1.78181 -6.41452,1.78181 z" />
  </g>
</svg>
